<?xml version="1.0" standalone="no"?>
<!DOCTYPE svg PUBLIC "-//W3C//DTD SVG 20010904//EN"
 "http://www.w3.org/TR/2001/REC-SVG-20010904/DTD/svg10.dtd">
<svg version="1.0" xmlns="http://www.w3.org/2000/svg"
 width="1000.000000pt" height="1000.000000pt" viewBox="0 0 1000.000000 1000.000000"
 preserveAspectRatio="xMidYMid meet">

<g transform="translate(0.000000,1000.000000) scale(0.100000,-0.100000)"
fill="oklch(.606 .25 292.717)" stroke="none">
<path d="M4550 9974 c-494 -32 -806 -92 -1245 -239 -391 -131 -878 -390 -1200
-639 -311 -241 -650 -582 -862 -867 -407 -549 -669 -1146 -802 -1829 -27 -138
-47 -309 -66 -557 -13 -179 -13 -228 0 -430 26 -406 46 -540 139 -918 32 -130
130 -417 195 -575 61 -145 213 -444 295 -578 156 -257 309 -463 517 -697 172
-194 511 -515 543 -515 17 0 445 440 443 455 -1 5 -42 45 -92 89 -551 489
-933 1038 -1159 1670 -115 320 -194 683 -208 956 l-3 65 315 5 c311 5 316 5
364 30 160 82 193 296 64 416 -73 69 -69 69 -426 72 l-323 3 6 52 c16 143 37
298 46 347 42 215 125 503 199 690 30 77 121 283 130 295 4 6 25 44 46 85 147
286 408 634 651 870 515 503 1140 844 1817 995 186 41 470 85 551 85 l35 0 0
-337 c0 -333 1 -339 24 -388 27 -59 88 -117 142 -136 97 -33 223 -4 282 66 61
72 62 78 62 453 l0 342 35 0 c110 0 499 -66 720 -121 198 -50 495 -164 709
-271 368 -184 650 -385 944 -673 444 -433 747 -929 931 -1525 60 -195 81 -287
122 -538 16 -102 32 -188 34 -190 2 -3 62 5 132 16 70 12 215 34 321 49 184
26 192 28 192 49 0 32 -65 410 -89 524 -12 52 -34 137 -50 190 -17 52 -37 122
-47 155 -22 78 -112 317 -162 430 -297 676 -780 1274 -1392 1726 -601 445
-1408 748 -2193 825 -147 14 -576 26 -687 18z"/>
<path d="M6631 7899 c-24 -4 -60 -19 -81 -31 -33 -20 -983 -972 -1483 -1486
l-158 -163 -60 12 c-108 21 -279 -6 -357 -57 -13 -9 -27 -13 -30 -9 -4 4 -246
244 -539 535 -401 398 -543 533 -580 551 -65 32 -169 32 -230 0 -101 -51 -152
-135 -153 -246 0 -125 -14 -108 609 -730 l562 -560 -6 -50 c-8 -62 16 -213 44
-279 54 -125 178 -256 302 -319 182 -92 409 -86 588 15 120 69 236 207 283
340 30 85 33 292 5 381 l-18 58 791 797 c869 876 843 845 843 965 0 176 -162
311 -332 276z m-1803 -2136 c73 -34 103 -133 63 -211 -66 -129 -254 -110 -291
29 -15 55 -3 106 37 150 52 57 113 67 191 32z"/>
<path d="M9569 5715 c-6 -5 -378 -90 -659 -150 -224 -48 -429 -93 -700 -155
-309 -70 -682 -149 -805 -170 -163 -29 -195 -38 -233 -67 -75 -57 -95 -172
-44 -254 16 -24 36 -50 44 -57 27 -22 679 -346 763 -379 44 -17 81 -36 83 -43
2 -6 -187 -201 -419 -433 -233 -233 -751 -751 -1152 -1153 l-727 -730 -673
669 c-743 740 -716 717 -842 717 -119 0 -137 -13 -462 -326 -363 -350 -516
-504 -672 -674 -68 -74 -361 -374 -650 -665 -289 -292 -673 -681 -852 -866
-297 -306 -329 -342 -349 -395 -48 -128 -11 -226 144 -380 119 -120 164 -145
261 -152 139 -8 114 -28 691 545 281 280 592 592 690 694 98 102 244 249 324
326 80 76 312 307 515 512 l370 373 155 -163 c213 -223 474 -485 867 -867 378
-367 393 -378 513 -370 43 4 82 14 115 31 38 20 368 343 1389 1361 737 735
1343 1336 1347 1336 4 0 14 -18 22 -39 25 -62 154 -337 204 -436 48 -94 153
-269 207 -343 70 -98 194 -127 292 -67 62 38 91 94 109 212 8 49 25 144 38
213 14 69 35 186 47 260 12 74 33 198 46 275 14 77 36 208 50 290 13 83 36
215 50 295 14 80 47 276 74 435 27 160 60 353 74 429 15 77 26 157 26 177 0
108 -90 188 -211 189 -31 0 -58 -2 -60 -5z"/>
</g>
</svg>
